<?xml version="1.0" standalone="no"?>
<!DOCTYPE svg PUBLIC "-//W3C//DTD SVG 20010904//EN"
 "http://www.w3.org/TR/2001/REC-SVG-20010904/DTD/svg10.dtd">
<svg version="1.0" xmlns="http://www.w3.org/2000/svg"
 width="500.000000pt" height="500.000000pt" viewBox="0 0 500.000000 500.000000"
 preserveAspectRatio="xMidYMid meet">
<metadata>
Created by potrace 1.11, written by Peter Selinger 2001-2013
</metadata>
<g transform="translate(0.000000,500.000000) scale(0.100000,-0.100000)"
fill="#000000" stroke="none">
<path d="M2329 4656 c-2 -2 -31 -7 -64 -10 -102 -9 -147 -17 -230 -36 -27 -6
-61 -14 -75 -16 -118 -22 -433 -152 -558 -231 -29 -18 -55 -33 -57 -33 -3 0
-44 -28 -92 -62 -410 -291 -699 -698 -841 -1183 -12 -38 -23 -81 -25 -95 -3
-14 -8 -37 -12 -51 -27 -108 -42 -286 -39 -474 3 -190 5 -222 20 -305 3 -19 8
-48 11 -65 2 -16 16 -75 29 -129 131 -522 449 -971 904 -1276 96 -64 95 -63
257 -144 197 -98 470 -178 688 -203 144 -16 439 -9 595 13 53 8 238 52 305 74
713 223 1266 811 1450 1540 24 96 28 115 41 205 3 28 9 59 11 70 9 41 11 392
3 460 -13 113 -20 156 -35 230 -34 164 -95 342 -171 502 -34 70 -143 261 -166
287 -4 6 -25 34 -45 61 -122 165 -325 365 -465 461 -24 16 -45 32 -48 35 -12
15 -204 125 -288 165 -295 141 -565 204 -908 210 -105 2 -193 2 -195 0z"/>
</g>
</svg>
